M48
; DRILL file {KiCad (5.1.8)-1} date 01/11/21 11:01:36
; FORMAT={-:-/ absolute / inch / decimal}
; #@! TF.CreationDate,2021-01-11T11:01:36+01:00
; #@! TF.GenerationSoftware,Kicad,Pcbnew,(5.1.8)-1
; #@! TF.FileFunction,Plated,1,2,PTH
FMAT,2
INCH
T1C0.0197
T2C0.0315
T3C0.0394
T4C0.0433
%
G90
G05
T1
X5.22Y-5.445
X5.22Y-5.545
X5.22Y-5.255
X5.22Y-5.355
T2
X4.7Y-5.225
X4.7Y-5.525
X4.87Y-4.32
X4.87Y-4.72
X6.3933Y-4.172
X6.4933Y-4.172
X6.5933Y-4.172
X6.6933Y-4.172
X4.99Y-4.16
X4.99Y-5.06
X5.09Y-4.16
X5.09Y-5.06
X5.19Y-4.16
X5.19Y-5.06
X5.29Y-4.16
X5.29Y-5.06
X5.39Y-4.16
X5.39Y-5.06
X5.49Y-4.16
X5.49Y-5.06
X5.59Y-4.16
X5.59Y-5.06
X5.69Y-4.16
X5.69Y-5.06
X4.9963Y-5.425
X5.075Y-5.425
X6.3933Y-5.472
X6.4933Y-5.472
X6.5933Y-5.472
X6.6933Y-5.472
X5.0Y-4.32
X5.0Y-4.72
X4.74Y-4.32
X4.74Y-4.72
X4.85Y-5.225
X4.85Y-5.525
X5.8Y-5.275
X5.8Y-5.375
X5.8Y-5.475
X5.8Y-5.575
T3
X5.488Y-5.3
X5.488Y-5.4
X5.488Y-5.5
X5.22Y-4.66
X5.22Y-4.76
X5.22Y-4.86
T4
X4.4664Y-4.1276
X4.4664Y-4.3244
X4.4664Y-4.5213
X4.4664Y-4.7181
X4.4664Y-4.915
X4.4664Y-5.1118
X4.4664Y-5.3087
X4.4664Y-5.5055
T0
M30
